<?xml version="1.0" standalone="no"?>
<!DOCTYPE svg PUBLIC "-//W3C//DTD SVG 20010904//EN"
 "http://www.w3.org/TR/2001/REC-SVG-20010904/DTD/svg10.dtd">
<svg version="1.0" xmlns="http://www.w3.org/2000/svg"
 width="2000.000000pt" height="500.000000pt" viewBox="0 0 2000.000000 500.000000"
 preserveAspectRatio="xMidYMid meet">

<g transform="translate(0.000000,500.000000) scale(0.100000,-0.100000)"
fill="#eeeeee" stroke="none">
<path d="M1805 4494 c-221 -45 -436 -158 -592 -312 -263 -259 -393 -572 -393
-948 0 -161 18 -284 62 -424 30 -96 164 -383 212 -453 14 -21 26 -42 26 -47 0
-18 45 -21 294 -18 l248 3 64 150 c36 82 69 154 74 159 6 6 10 16 10 22 0 7
15 45 34 86 18 40 53 120 78 178 25 58 67 156 93 218 27 62 52 109 56 105 4
-5 81 -129 170 -278 90 -148 213 -353 274 -454 61 -102 115 -186 121 -187 5
-2 34 29 64 67 30 39 62 79 70 89 8 10 22 28 30 40 37 54 83 110 91 110 5 0
21 -19 35 -42 15 -23 31 -46 36 -52 5 -6 75 -104 155 -218 80 -115 148 -208
152 -208 8 0 79 171 172 415 70 185 206 534 274 705 18 47 52 135 75 195 23
61 43 111 45 113 1 1 28 -62 60 -140 32 -79 71 -172 88 -208 16 -35 30 -69 32
-75 1 -5 7 -21 13 -35 6 -14 43 -104 82 -200 118 -289 177 -431 210 -505 9
-22 23 -57 31 -77 l13 -38 638 0 638 0 0 175 0 175 -306 0 c-288 0 -306 1
-299 18 14 31 103 292 101 292 -2 0 3 24 11 53 23 82 28 380 9 497 -31 192
-116 402 -220 550 -135 189 -280 314 -472 407 -168 81 -269 103 -470 103 -106
0 -187 -5 -234 -15 -224 -47 -470 -172 -685 -347 l-80 -65 -75 64 c-198 171
-451 299 -685 348 -69 14 -373 20 -430 9z"/>
<path d="M11233 3400 l-243 -119 0 -122 c0 -111 1 -121 18 -114 9 3 122 50
249 103 l233 97 0 138 c0 75 -3 137 -7 136 -5 0 -117 -54 -250 -119z"/>
<path d="M12880 3070 l0 -270 -41 45 c-25 28 -71 60 -115 82 -64 31 -85 36
-167 41 -109 5 -175 -7 -260 -50 -170 -85 -272 -264 -284 -498 -17 -311 136
-561 382 -625 168 -43 361 9 455 123 l30 37 0 -83 0 -82 178 2 177 3 0 770 0
770 -177 3 -178 2 0 -270z m-132 -441 c94 -54 138 -149 129 -281 -10 -158
-108 -258 -252 -258 -68 0 -110 17 -163 64 -102 93 -121 281 -39 403 69 103
215 135 325 72z"/>
<path d="M8359 3270 c-131 -21 -252 -80 -318 -155 -75 -86 -112 -218 -92 -337
16 -96 43 -147 111 -212 69 -66 124 -92 342 -165 164 -55 226 -89 253 -140 33
-65 7 -143 -58 -174 -44 -21 -148 -22 -186 -2 -41 20 -79 70 -87 110 l-6 35
-189 0 -189 0 0 -23 c0 -12 7 -50 16 -82 52 -201 233 -324 504 -342 348 -22
594 178 578 470 -6 110 -33 170 -109 242 -67 64 -125 93 -342 171 -232 83
-275 117 -264 212 7 66 49 104 121 110 30 2 66 2 80 -2 40 -10 95 -64 107
-107 l12 -39 190 0 190 0 -7 58 c-9 78 -55 172 -113 230 -53 53 -147 104 -233
127 -69 19 -237 27 -311 15z"/>
<path d="M15214 3246 c-3 -8 -4 -232 -1 -498 4 -524 6 -548 63 -661 81 -161
211 -256 402 -293 156 -30 310 -10 452 58 109 52 192 134 244 240 61 122 65
171 66 701 l0 467 -180 0 -179 0 -3 -492 c-3 -483 -3 -494 -25 -533 -43 -81
-105 -116 -214 -123 -67 -4 -84 -1 -131 21 -32 14 -66 39 -82 60 -54 71 -56
90 -56 599 l0 468 -175 0 c-143 0 -177 -3 -181 -14z"/>
<path d="M18095 3248 c-3 -7 -4 -337 -3 -733 l3 -720 390 0 c332 1 400 4 458
18 168 42 265 131 303 277 45 178 -30 347 -187 424 l-69 33 51 23 c57 27 133
104 155 157 27 62 36 148 24 216 -27 148 -123 246 -287 294 -79 23 -830 33
-838 11z m678 -292 c18 -7 45 -28 60 -45 22 -27 27 -42 27 -89 0 -69 -23 -112
-73 -135 -28 -14 -66 -17 -186 -17 l-151 0 0 150 0 150 145 0 c100 0 156 -4
178 -14z m33 -569 c99 -51 124 -179 50 -253 -45 -45 -89 -54 -258 -54 l-148 0
0 166 0 167 163 -5 c122 -4 170 -9 193 -21z"/>
<path d="M7046 2954 c-141 -34 -279 -138 -344 -261 -94 -178 -97 -454 -5 -626
36 -67 153 -184 220 -220 168 -89 421 -88 592 3 64 34 137 102 184 169 28 41
67 129 67 151 0 6 -70 10 -187 10 l-188 -1 -20 -32 c-30 -48 -89 -77 -158 -77
-120 0 -200 66 -222 183 l-7 37 406 0 406 0 0 98 c0 183 -48 310 -160 423 -71
71 -153 118 -255 144 -74 19 -249 18 -329 -1z m233 -274 c78 -22 133 -79 146
-152 l7 -38 -225 0 -225 0 10 41 c14 52 81 126 133 144 47 17 107 19 154 5z"/>
<path d="M9560 2951 c-88 -28 -140 -60 -201 -120 -63 -64 -118 -162 -145 -262
-25 -89 -25 -290 -1 -379 55 -205 187 -349 362 -395 168 -43 361 9 455 123
l30 37 0 -83 0 -82 180 0 180 0 0 585 0 585 -180 0 -180 0 0 -80 0 -80 -41 45
c-79 86 -180 125 -318 124 -54 0 -107 -7 -141 -18z m359 -316 c93 -46 141
-136 141 -259 0 -79 -13 -123 -53 -182 -106 -158 -349 -131 -427 48 -27 62
-33 188 -11 252 18 51 85 124 136 147 60 28 153 25 214 -6z"/>
<path d="M13846 2954 c-200 -48 -348 -197 -401 -404 -21 -78 -23 -240 -6 -325
7 -33 31 -97 52 -143 92 -191 282 -302 519 -302 230 0 418 108 510 292 22 44
40 87 40 94 0 11 -34 14 -187 14 l-188 0 -22 -35 c-32 -48 -89 -75 -160 -75
-102 1 -184 59 -212 149 -23 77 -57 70 392 73 l402 3 3 89 c5 169 -49 316
-158 427 -72 73 -154 118 -261 144 -80 18 -244 18 -323 -1z m241 -279 c60 -18
116 -74 132 -132 6 -21 11 -41 11 -45 0 -5 -101 -8 -225 -8 l-225 0 6 28 c31
132 160 199 301 157z"/>
<path d="M17278 2955 c-78 -20 -124 -45 -186 -100 l-52 -47 0 76 0 76 -175 0
-175 0 0 -585 0 -585 174 0 174 0 4 353 3 352 27 57 c36 77 87 111 175 116 82
6 141 -16 186 -69 55 -63 57 -83 57 -463 l0 -346 175 0 176 0 -3 418 c-3 405
-4 419 -26 477 -47 127 -134 216 -249 257 -75 26 -208 33 -285 13z"/>
<path d="M10670 2569 c0 -323 3 -402 16 -452 48 -186 171 -300 357 -329 139
-21 290 25 382 116 l45 45 0 -79 0 -80 175 0 175 0 0 585 0 585 -175 0 -175 0
0 -338 c0 -277 -3 -348 -16 -391 -53 -180 -311 -206 -404 -41 l-25 45 -3 363
-3 362 -174 0 -175 0 0 -391z"/>
<path d="M3791 2702 c-25 -64 -50 -130 -57 -147 -7 -16 -12 -32 -11 -35 0 -3
-6 -16 -13 -30 -8 -14 -15 -30 -16 -36 -1 -7 -13 -38 -28 -70 -14 -33 -78
-196 -142 -364 -64 -168 -122 -318 -130 -335 -7 -16 -23 -56 -34 -87 -12 -32
-23 -58 -24 -58 -1 0 -29 39 -62 88 -32 48 -65 93 -72 100 -6 8 -17 23 -23 34
-6 11 -26 41 -45 67 -19 25 -38 51 -42 56 -4 6 -27 39 -52 75 -24 36 -49 70
-55 76 -5 6 -28 39 -50 72 -22 34 -45 62 -51 62 -10 0 -198 -236 -254 -318
-14 -21 -20 -13 -155 209 -77 127 -150 247 -162 267 -13 20 -27 46 -33 57 -41
80 -165 274 -175 275 -6 0 -15 -12 -22 -27 -6 -16 -53 -125 -103 -243 -51
-118 -97 -224 -103 -235 -6 -11 -11 -23 -12 -26 0 -3 -9 -24 -20 -47 l-20 -42
-612 0 -613 0 0 -190 0 -190 532 0 532 0 145 -143 c296 -292 618 -575 999
-881 139 -111 177 -137 195 -132 26 6 315 235 555 439 270 230 468 412 667
612 170 171 375 395 375 409 0 3 -90 7 -201 8 l-201 3 -25 60 c-13 33 -49 121
-79 195 -30 74 -63 153 -73 175 -10 22 -22 51 -26 65 -4 14 -21 54 -37 90 -17
36 -43 97 -58 135 -38 95 -52 125 -59 125 -3 0 -26 -53 -50 -118z"/>
</g>
</svg>
