<?xml version="1.0" standalone="no"?>
<!DOCTYPE svg PUBLIC "-//W3C//DTD SVG 20010904//EN"
 "http://www.w3.org/TR/2001/REC-SVG-20010904/DTD/svg10.dtd">
<svg version="1.0" xmlns="http://www.w3.org/2000/svg"
 width="1000.000000pt" height="1000.000000pt" viewBox="0 0 1000.000000 1000.000000"
 preserveAspectRatio="xMidYMid meet">

<g transform="translate(0.000000,1000.000000) scale(0.100000,-0.100000)"
fill="#000000" stroke="none">
<path d="M2528 8924 c-742 -90 -1411 -585 -1774 -1314 -247 -496 -330 -1064
-235 -1607 69 -395 239 -821 496 -1245 l89 -148 505 0 506 0 400 921 c220 506
402 922 406 924 3 2 257 -412 565 -921 307 -508 562 -924 565 -924 3 0 115
142 248 315 133 173 245 315 249 315 4 -1 173 -237 376 -526 362 -515 369
-525 381 -497 6 15 256 657 555 1426 299 769 546 1394 550 1390 4 -4 237 -568
520 -1253 282 -685 519 -1257 527 -1272 l14 -28 1244 0 1245 0 0 340 0 340
-619 0 -620 0 40 85 c114 243 194 524 235 825 24 171 24 529 0 700 -80 586
-326 1097 -721 1496 -352 355 -763 570 -1244 651 -149 25 -492 25 -646 -1
-530 -87 -1062 -350 -1539 -760 -48 -42 -91 -76 -93 -76 -3 0 -49 37 -102 83
-264 229 -503 388 -774 517 -445 212 -913 296 -1349 244z"/>
<path d="M5925 4349 c-269 -693 -492 -1262 -495 -1264 -3 -1 -204 280 -448
626 -244 346 -447 629 -452 629 -5 0 -124 -151 -265 -335 -141 -184 -259 -335
-263 -335 -4 0 -230 369 -502 819 -272 450 -497 817 -499 815 -2 -2 -124 -280
-271 -616 l-267 -613 -1212 -3 -1211 -2 0 -355 0 -355 1051 0 1052 0 251 -247
c651 -641 1385 -1280 2288 -1991 l68 -54 107 83 c545 419 1277 1036 1813 1528
250 230 785 774 1004 1021 l217 245 -392 5 -393 5 -340 827 c-188 455 -343
828 -346 828 -3 0 -225 -568 -495 -1261z"/>
</g>
</svg>
