<svg width="24" height="34" viewBox="0 0 24 34" fill="none" xmlns="http://www.w3.org/2000/svg">
<path fill-rule="evenodd" clip-rule="evenodd" d="M18.7497 4.73276C19.0925 5.56013 19.2872 6.44035 19.3261 7.33333H19.3333V11.8341C22.172 14.0287 24 17.4676 24 21.3333C24 27.9607 18.6274 33.3333 12 33.3333C5.37258 33.3333 0 27.9607 0 21.3333C0 17.7793 1.545 14.5862 4 12.3889V7.33333H4.00725C4.04611 6.44035 4.24088 5.56014 4.58359 4.73276C4.96888 3.8026 5.5336 2.95743 6.24551 2.24551C6.95743 1.5336 7.8026 0.968876 8.73276 0.58359C9.66292 0.198304 10.6599 0 11.6667 0C12.6735 0 13.6704 0.198304 14.6006 0.58359C15.5307 0.968876 16.3759 1.5336 17.0878 2.24551C17.7997 2.95743 18.3645 3.8026 18.7497 4.73276ZM7.33333 10.2745V7.66667H7.335C7.335 7.09782 7.44704 6.53455 7.66473 6.00901C7.88242 5.48347 8.20148 5.00595 8.60372 4.60372C9.00595 4.20148 9.48347 3.88241 10.009 3.66473C10.5346 3.44704 11.0978 3.335 11.6667 3.335C12.2355 3.335 12.7988 3.44704 13.3243 3.66473C13.8499 3.88241 14.3274 4.20148 14.7296 4.60372C15.1319 5.00595 15.4509 5.48347 15.6686 6.00901C15.8863 6.53455 15.9983 7.09782 15.9983 7.66667H16V10.0162C14.7489 9.57395 13.4025 9.33333 12 9.33333C10.3448 9.33333 8.76785 9.66845 7.33333 10.2745ZM10.6667 19.3333C10.6667 18.597 11.2636 18 12 18C12.7364 18 13.3333 18.597 13.3333 19.3333V22.6667C13.3333 23.403 12.7364 24 12 24C11.2636 24 10.6667 23.403 10.6667 22.6667V19.3333Z" fill="#0459AE"/>
</svg>
