<svg class="draw-main" width="678" height="341" viewBox="0 0 678 341" fill="none" xmlns="http://www.w3.org/2000/svg"><path d="M65 105a4 4 0 100-8 4 4 0 000 8zM65 129a4 4 0 100-8 4 4 0 000 8zM69 149a4 4 0 11-8 0 4 4 0 018 0zM65 117a4 4 0 100-8 4 4 0 000 8zM69 137a4 4 0 11-8 0 4 4 0 018 0zM65 165a4 4 0 100-8 4 4 0 000 8zM85 101a4 4 0 11-8 0 4 4 0 018 0zM81 129a4 4 0 100-8 4 4 0 000 8zM85 149a4 4 0 11-8 0 4 4 0 018 0zM81 117a4 4 0 100-8 4 4 0 000 8zM85 137a4 4 0 11-8 0 4 4 0 018 0zM81 165a4 4 0 100-8 4 4 0 000 8zM101 101a4 4 0 11-8 0 4 4 0 018 0zM97 129a4 4 0 100-8 4 4 0 000 8zM101 149a4 4 0 11-8 0 4 4 0 018 0zM97 117a4 4 0 100-8 4 4 0 000 8zM101 137a4 4 0 11-8 0 4 4 0 018 0zM97 165a4 4 0 100-8 4 4 0 000 8zM117 101a4 4 0 11-8 0 4 4 0 018 0zM113 129a4 4 0 100-8 4 4 0 000 8zM117 113a4 4 0 11-8 0 4 4 0 018 0zM129 105a4 4 0 100-8 4 4 0 000 8zM165 101a4 4 0 11-8 0 4 4 0 018 0zM129 129a4 4 0 100-8 4 4 0 000 8zM133 113a4 4 0 11-8 0 4 4 0 018 0zM145 105a4 4 0 100-8 4 4 0 000 8zM181 101a4 4 0 11-8 0 4 4 0 018 0zM145 117a4 4 0 100-8 4 4 0 000 8z" fill="#50A5FA"/><path fill-rule="evenodd" clip-rule="evenodd" d="M470.648 18a1.4 1.4 0 00-1.373 1.126l-.735 3.673a16.687 16.687 0 00-3.841 1.592l-3.118-2.078a1.4 1.4 0 00-1.767.175l-3.327 3.326a1.4 1.4 0 00-.175 1.767l2.079 3.118a16.73 16.73 0 00-1.593 3.841l-3.673.735A1.4 1.4 0 00452 36.648v4.704a1.4 1.4 0 001.125 1.373l3.673.735a16.733 16.733 0 001.593 3.842l-2.079 3.118a1.4 1.4 0 00.175 1.766l3.327 3.327a1.4 1.4 0 001.767.175l3.117-2.079a16.726 16.726 0 003.905 1.61l.683 3.64A1.4 1.4 0 00470.662 60h4.676a1.4 1.4 0 001.376-1.142l.683-3.639c1.401-.379 2.73-.935 3.961-1.643l3.057 2.092c.556.38 1.304.31 1.781-.165l3.306-3.307a1.4 1.4 0 00.166-1.78l-2.092-3.058a16.704 16.704 0 001.626-3.898l3.673-.735A1.4 1.4 0 00494 41.352v-4.704a1.4 1.4 0 00-1.125-1.373l-3.673-.735a16.73 16.73 0 00-1.593-3.841l2.079-3.118a1.4 1.4 0 00-.176-1.767l-3.326-3.326a1.4 1.4 0 00-1.767-.175l-3.118 2.078a16.687 16.687 0 00-3.841-1.592l-.735-3.673A1.4 1.4 0 00475.352 18h-4.704zm9.306 27.905A9.77 9.77 0 00482.8 39c0-5.412-4.388-9.8-9.8-9.8-5.412 0-9.8 4.388-9.8 9.8 0 5.413 4.388 9.8 9.8 9.8a9.77 9.77 0 006.905-2.846l.049-.049z" fill="#50A5FA"/><path d="M376.127 165.847l-126.883 59.167-2.113-4.532 126.883-59.166 2.113 4.531zM331.422 164.626l-90.63 42.261-2.113-4.531 90.63-42.262 2.113 4.532zM232.36 188.752l54.378-25.357-2.113-4.532-54.378 25.357 2.113 4.532zM353.775 165.236l-108.757 50.715-2.113-4.532 108.757-50.714 2.113 4.531zM236.586 197.815l72.504-33.81-2.113-4.531-72.504 33.809 2.113 4.532zM264.365 162.794l-36.252 16.904-2.113-4.531 36.252-16.905 2.113 4.532zM153.951 4.54a1 1 0 00-.027 1.414l4.161 4.323 5.764-5.548-4.161-4.323a1 1 0 00-1.414-.027l-4.323 4.161zM164.514 5.42l-5.764 5.548 26.449 27.476 6.88 1.38-1.117-6.928L164.514 5.42z" fill="#50A5FA"/><path fill-rule="evenodd" clip-rule="evenodd" d="M399.251 202.017a10.32 10.32 0 013.001 7.064h.003v7.235a3.242 3.242 0 00.959 2.272l.014.013.029.028.058.055-.006.006a.868.868 0 01.691.847v.433a.87.87 0 01-.873.866h-8.737a2.367 2.367 0 01-.693 1.467A2.402 2.402 0 01392 223a2.408 2.408 0 01-2.217-1.47 2.357 2.357 0 01-.173-.694h-8.737a.87.87 0 01-.873-.866v-.433c0-.417.297-.765.693-.847l-.007-.008a3.228 3.228 0 001.059-2.367v-7.234h.003a10.32 10.32 0 013.001-7.064A10.23 10.23 0 01392 199a10.23 10.23 0 017.251 3.017zm-14.887 7.283c0-4.236 3.419-7.67 7.636-7.67 4.217 0 7.636 3.434 7.636 7.67v7.232h.004a6.04 6.04 0 00.473 2.139h-16.227a6.042 6.042 0 00.474-2.139h.004V209.3zM345 39a6 6 0 100-12 6 6 0 000 12zm0-2a4 4 0 100-8 4 4 0 000 8z" fill="#50A5FA"/><path d="M570.454 84.61l-9.844 9.844 24.61 24.61-24.61 24.61 9.844 9.845 24.61-24.611 24.61 24.611 9.845-9.845-24.611-24.61 24.611-24.61-9.845-9.844-24.61 24.61-24.61-24.61zM449.95 88.535l-1.414 1.415 3.535 3.535-3.535 3.536 1.414 1.414 3.535-3.536 3.536 3.536 1.414-1.414-3.536-3.536 3.536-3.535-1.414-1.415-3.536 3.536-3.535-3.535zM634.95 46.535l-1.414 1.415 3.535 3.535-3.535 3.536 1.414 1.414 3.535-3.536 3.536 3.536 1.414-1.414-3.536-3.536 3.536-3.535-1.414-1.415-3.536 3.536-3.535-3.535z" fill="#50A5FA"/><path fill-rule="evenodd" clip-rule="evenodd" d="M666 158c6.627 0 12-5.373 12-12s-5.373-12-12-12-12 5.373-12 12 5.373 12 12 12zm0-1.412c5.848 0 10.588-4.74 10.588-10.588 0-5.848-4.74-10.588-10.588-10.588-5.848 0-10.588 4.74-10.588 10.588 0 5.848 4.74 10.588 10.588 10.588z" fill="#0459AE"/><path d="M666.706 137.529h-1.412v9.177l4.492 4.492.999-.998-4.079-4.079v-8.592z" fill="#0459AE"/><path fill-rule="evenodd" clip-rule="evenodd" d="M620 230a7 7 0 100-14 7 7 0 000 14zm0-1.75a5.25 5.25 0 100-10.5 5.25 5.25 0 000 10.5z" fill="#0459AE"/><path d="M623.707 228.121a1 1 0 011.414-1.414l4.243 4.243a1 1 0 01-1.414 1.414l-4.243-4.243z" fill="#0459AE"/><path fill-rule="evenodd" clip-rule="evenodd" d="M16 171a6 6 0 100-12 6 6 0 000 12zm0-2a4 4 0 100-8 4 4 0 000 8z" fill="#0459AE"/><path d="M65.46 74.984C64.724 74.672 54 70.033 54 63.917 54 59.544 56.91 56 60.5 56c2.01 0 3.808 1.112 5 2.858 1.192-1.746 2.99-2.858 5-2.858 3.59 0 6.525 3.545 6.5 7.917-.035 6.115-10.76 10.755-11.496 11.066A1.267 1.267 0 0165.5 75l-.018-.007-.018.007-.004-.016zM267 125h-2v5h-5v2h5v5h2v-5h5v-2h-5v-5zM317.95 246.536l-1.414 1.414 3.535 3.535-3.535 3.536 1.414 1.414 3.535-3.535 3.536 3.535 1.414-1.414-3.536-3.536 3.536-3.535-1.414-1.414-3.536 3.535-3.535-3.535z" fill="#0459AE"/><path fill-rule="evenodd" clip-rule="evenodd" d="M369 97a4 4 0 014-4h28a4 4 0 014 4v12a4 4 0 01-4 4h-2.124l.68 3.96-5.82-3.96H373a4 4 0 01-4-4V97zm18 9a3 3 0 100-6 3 3 0 000 6zm-5-3a3 3 0 11-6 0 3 3 0 016 0zm13 3a3 3 0 100-6 3 3 0 000 6z" fill="#0459AE"/><path d="M432.775 285.991c.007 1.29.544 2.507 2.139 2.507 1.498 0 2.023-.87 2.005-2.525-.006-1.461-.471-2.276-2.017-2.276-1.357 0-2.12.906-2.127 2.294z" fill="#0459AE"/><path fill-rule="evenodd" clip-rule="evenodd" d="M421 298c-2.209 0-4-1.98-4-4.422v-15.363c0-2.442 1.791-4.422 4-4.422h20.736l5.82-4.793-.68 4.793H449c2.209 0 4 1.98 4 4.422v15.363c0 2.442-1.791 4.422-4 4.422h-28zm18.406-4.84c-.764.432-2.469.84-4.21.84-5.201 0-8.19-2.891-8.196-7.863.006-4.893 3.019-8.137 8.275-8.137 4.859 0 7.731 2.994 7.725 7.322.006 2.988-1.002 5.106-3.642 5.252-1.418.103-1.981-.469-2.115-1.309h-.073c-.288.737-1.534 1.315-2.922 1.236-1.931-.104-3.569-1.57-3.581-4.437.012-2.824 1.772-4.157 3.404-4.394 1.375-.207 2.671.298 2.879.834h.085v-.682h1.913v5.94c.006.566.263.882.685.882.843 0 1.283-1.083 1.277-3.462.006-3.822-2.726-5.222-5.666-5.222-4.064 0-6.056 2.623-6.068 6.104.012 3.846 2.175 5.952 6.16 5.952 1.406 0 2.811-.353 3.465-.621l.605 1.765zM580 49a4 4 0 00-4-4h-13a4 4 0 00-4 4v17.204a4 4 0 003.561 3.976l-.385 4.82 3.284-4.796H576a4 4 0 004-4V49zm-9.501 12.129h-2.814v-.26c.007-2.663.705-3.478 1.952-4.285.913-.593 1.619-1.256 1.619-2.253 0-1.058-.809-1.743-1.812-1.743-.972 0-1.871.662-1.915 1.903H564.5c.067-3.045 2.264-4.49 4.959-4.49 2.947 0 5.041 1.552 5.041 4.216 0 1.789-.906 2.908-2.294 3.753-1.173.723-1.693 1.416-1.707 2.9v.259zm.43 3.044c-.007 1.013-.831 1.827-1.782 1.827-.98 0-1.789-.814-1.781-1.827a1.796 1.796 0 011.781-1.811c.951 0 1.775.814 1.782 1.811zM267.667 52a4 4 0 00-4-4H249a4 4 0 00-4 4v20.564a4 4 0 003.842 3.997l-.414 5.44 3.545-5.437h11.694a4 4 0 004-4V52zm-13.022 2h3.793l-.333 12.222h-3.119L254.645 54zm3.946 15.63c-.009 1.134-.955 2.046-2.045 2.046a2.041 2.041 0 01-2.046-2.045c-.008-1.117.921-2.029 2.046-2.029 1.09 0 2.036.912 2.045 2.029z" fill="#0459AE"/><ellipse cx="155.734" cy="320.95" rx="72.738" ry="20.05" fill="#0966C3"/><path d="M224.513 186.199L246 186s8.716 14.49 10.101 24.63c2.738 20.048-11.414 29.466-17.147 48.863-4.82 16.31 3.481 32.783-10.573 42.253-29.435 19.833-75.444 7.473-75.444 7.473l71.576-123.02z" fill="#361F23"/><path d="M130.032 224.891c.243-3.671 4.234-5.832 7.441-4.028l49.787 28.006a5.074 5.074 0 012.532 5.062c-.963 7.649-3.103 26.622-2.467 39.821.376 7.817 1.99 17.06 2.64 20.543.174.934.07 1.902-.617 2.558-2.214 2.112-9.601 6.429-33.012 6.429-18.698 0-27.368-4.091-30.647-6.256-1.133-.749-1.611-2.075-1.521-3.43l5.864-88.705z" fill="#794E3A"/><rect x="116.079" y="130.034" width="107.242" height="144.544" rx="53.621" transform="rotate(-1.067 116.079 130.034)" fill="#8A5C42"/><path d="M134.329 125.446s8.822-10.713 20.312-15.032c28.342-10.652 60.258-1.865 74.956 24.624 7.979 14.38 5.991 19.281 10.585 35.074C242.247 177.211 246 186 246 186s-18.763 1.26-30.708.432c-16.173-1.121-26.187-3.125-41.063-12.574-6.803-4.32-15.735-12.598-15.735-12.598s2.002 12.598-1.145 21.761c-3.819 11.118-13.292 10.855-19.014 30.182-5.722 19.327 4.863 36.649-7.153 83.033-5.894 22.754-40.91 32.641-66.372 32.641-16.022 0-48.636-8.876-62.94-49.533-8.89-25.267 15.494-41.483 39.766-46.957 20.312-4.581 1.837-20.599 25.462-37.795 6.294-4.581 15.549-8.225 20.026-14.316 9.286-12.629 6.513-14.985 10.013-29.777 2.575-10.88 9.523-19.183 19.168-23.478 6.797-3.027 18.024-1.575 18.024-1.575z" fill="#451C1C"/><path d="M180.31 203.215c.398.962.603 1.992.603 3.033h-1.762a6.166 6.166 0 00-12.329 0h-1.762a7.932 7.932 0 012.321-5.605 7.92 7.92 0 015.605-2.321 7.937 7.937 0 015.605 2.321 7.938 7.938 0 011.719 2.572zM207.49 198.322a7.928 7.928 0 017.927 7.926h-1.762a6.165 6.165 0 00-12.329 0h-1.763a7.93 7.93 0 017.927-7.926z" fill="#43302D"/><ellipse rx="78" ry="21.5" transform="matrix(-1 0 0 1 538.483 319.5)" fill="#0966C3"/><path d="M568.045 229.309c-.27-3.512-3.99-5.651-7.162-4.118l-54.036 26.13a5.08 5.08 0 00-2.804 5.309c1.067 7.381 3.228 24.292 2.564 36.148-.39 6.971-2.022 15.172-2.76 18.606-.229 1.071-.078 2.182.791 2.848 2.605 1.996 10.76 5.768 35.199 5.768 19.685 0 29.005-3.634 32.666-5.656 1.321-.729 1.913-2.192 1.797-3.696l-6.255-81.339z" fill="#F4BBA4"/><rect width="115" height="155" rx="57.5" transform="scale(1 -1) rotate(2 8377.038 13225.202)" fill="#F5CEBC"/><path d="M527.836 207.035a8.508 8.508 0 00.647-3.253h-1.89a6.61 6.61 0 01-13.22 0h-1.89a8.508 8.508 0 002.49 6.01 8.5 8.5 0 009.263 1.843 8.5 8.5 0 004.6-4.6zM482.983 212.282a8.5 8.5 0 008.5-8.5h-1.89a6.61 6.61 0 11-13.22 0h-1.89a8.5 8.5 0 008.5 8.5z" fill="#F39191"/><ellipse cx="573.483" cy="205.782" rx="11" ry="17.5" fill="#F5CEBC"/><path d="M467.483 136.282c8.771-8.08 12.005-8.379 21-12 11.8-4.751 19-12.898 34.5-11 11.9 1.457 23.5 14.5 23.5 14.5s11.017-2.782 18 0c17.657 7.033 21.654 21.689 22.017 36.218 1 40-2.017 42.282-2.017 42.282s0-5.5-1.5-8.5c-1.72-3.441-4.983-5.282-9-4.001-5.06 1.615-4.523 17.006-14.5 24.501-9.977 7.494-4.465-24.397-13-33.5-7.5-8-11.5-24.001-11.5-24.001s-19.142 16.341-33 22.001c-13.241 5.407-28.036 7.743-35.5 6.499-18-2.999-10.12-13.901-7.5-26.999 1.541-7.707.445-18.58 8.5-26z" fill="#47251F"/></svg>