<svg width="32" height="32" viewBox="0 0 32 32" fill="none" xmlns="http://www.w3.org/2000/svg">
<path fill-rule="evenodd" clip-rule="evenodd" d="M13.4479 26.8958C20.875 26.8958 26.8958 20.875 26.8958 13.4479C26.8958 6.02084 20.875 0 13.4479 0C6.02084 0 0 6.02084 0 13.4479C0 20.875 6.02084 26.8958 13.4479 26.8958ZM13.4479 23.5339C19.0182 23.5339 23.5339 19.0182 23.5339 13.4479C23.5339 7.87761 19.0182 3.36198 13.4479 3.36198C7.87761 3.36198 3.36198 7.87761 3.36198 13.4479C3.36198 19.0182 7.87761 23.5339 13.4479 23.5339Z" fill="#0459AE"/>
<path d="M20.5698 23.2866C19.8195 22.5364 19.8195 21.32 20.5698 20.5698C21.32 19.8195 22.5364 19.8195 23.2866 20.5698L31.4373 28.7204C32.1876 29.4707 32.1876 30.6871 31.4373 31.4373C30.6871 32.1876 29.4707 32.1876 28.7204 31.4373L20.5698 23.2866Z" fill="#0459AE"/>
</svg>
