<svg width="24" height="24" viewBox="0 0 24 24" fill="none" xmlns="http://www.w3.org/2000/svg">
<path d="M12.24 12C15.5537 12 18.24 9.31371 18.24 6C18.24 2.68629 15.5537 0 12.24 0C8.92629 0 6.24 2.68629 6.24 6C6.24 9.31371 8.92629 12 12.24 12Z" fill="#0459AE"/>
<path d="M3.51475 13.1147C4.29932 12.3302 5.18725 11.6598 6.15223 11.1213C7.45934 12.8163 9.59156 13.92 12 13.92C14.4084 13.92 16.5407 12.8163 17.8478 11.1213C18.8128 11.6598 19.7007 12.3302 20.4853 13.1147C21.5996 14.229 22.4835 15.5519 23.0866 17.0078C23.6896 18.4637 24 20.0241 24 21.6V24H0V21.6C0 20.0241 0.310371 18.4637 0.913418 17.0078C1.51652 15.5519 2.40041 14.229 3.51475 13.1147Z" fill="#0459AE"/>
</svg>
