<svg width="132" height="132" viewBox="0 0 132 132" fill="none" xmlns="http://www.w3.org/2000/svg">
<mask id="mask0" mask-type="alpha" maskUnits="userSpaceOnUse" x="0" y="0" width="132" height="132">
<circle cx="66" cy="66" r="66" fill="#C4C4C4"/>
</mask>
<g mask="url(#mask0)">
<circle cx="66" cy="66" r="66" fill="#EEEEEE"/>
<path d="M67.12 76C82.584 76 95.12 63.464 95.12 48C95.12 32.536 82.584 20 67.12 20C51.656 20 39.12 32.536 39.12 48C39.12 63.464 51.656 76 67.12 76Z" fill="#0459AE"/>
<path d="M26.4021 81.2021C30.0635 77.5408 34.2071 74.4124 38.7104 71.8993C44.8102 79.8093 54.7606 84.96 66 84.96C77.2394 84.96 87.1898 79.8093 93.2896 71.8993C97.7929 74.4124 101.937 77.5408 105.598 81.2021C110.798 86.4021 114.923 92.5755 117.737 99.3696C120.552 106.164 122 113.446 122 120.8V132H10V120.8C10 113.446 11.4484 106.164 14.2626 99.3699C17.0771 92.5755 21.2019 86.4021 26.4021 81.2021Z" fill="#0459AE"/>
</g>
</svg>
