<svg width="1438" height="124" viewBox="0 0 1438 124" fill="none" xmlns="http://www.w3.org/2000/svg">
<path d="M290.268 94.1648C311.044 100.629 333.213 101.166 354.278 95.7146L692.336 8.23189C760.719 -9.46431 833.375 1.88066 893.108 39.5817L945.674 72.7592C966.574 85.9504 991.619 90.9348 1015.98 86.7509L1235.36 49.0686C1293.39 39.1011 1353 52.6212 1401.05 86.6482L1424.37 103.156C1428.33 105.966 1433.15 107.323 1438 107V107V124H0V107V107C4.25938 107 8.44488 105.887 12.1421 103.772L41.7881 86.8133C92.3059 57.9145 152.565 51.3209 208.137 68.6112L290.268 94.1648Z" fill="#EEEEEE"/>
</svg>
